# xmcd
#
# Track frame offsets:
#	150
#	17519
#	34030
#	50837
#	66186
#	81338
#	98102
#	115025
#	129114
#	145408
#	160382
#	178715
#	193603
#	205097
#	220532
#	235571
#	250929
#	266833
#	288687
#	309016
#
# Disc length: 4481 seconds
#
# Revision: 0
# Processed by: cddbd v1.5.2PL0 Copyright (c) Steve Scherf et al.
# Submitted via: EasyCDDAExtractor 2010.6.0.0
#
DISCID=18117f14
DTITLE=Various Artist - Pete Waterman Presents The Hit Factory
DYEAR=2012
DGENRE=Pop
TTITLE0=Kylie Minogue - Hand On Your Heart
TTITLE1=Bananarama - Venus
TTITLE2=Hazell Dean - Who's Leaving Who
TTITLE3=Cliff Richard - I Just Don't Have The Heart
TTITLE4=Rick Astley - Together Forever
TTITLE5=Sinitta - Cross My Broken Heart
TTITLE6=Samantha Fox - Nothing's Gonna Stop Us Now
TTITLE7=Dead Or Alive - Lover Come Back (To Me)
TTITLE8=Opus III - It's A Fine Day
TTITLE9=Stock Aitken Waterman - Roadblock
TTITLE10=Princess - I'll Keep On Loving You
TTITLE11=Lonnie Gordon - Beyond Your Wildest Dreams
TTITLE12=Jason Donovan - Sealed With A Kiss
TTITLE13=West End feat. Sybil - The Love I Lost
TTITLE14=Brother Beyond - He Ain't No Competition
TTITLE15=Sonia - Listen To Your Heart
TTITLE16=The Reynolds Girls - I'd Rather Jack
TTITLE17=Mel and Kim - Showing Out (Get Fresh At The Weekend)
TTITLE18=Steps - Tragedy
TTITLE19=Various Artist - The WIP 2 Tribute Mix
EXTD=
EXTT0=
EXTT1=
EXTT2=
EXTT3=
EXTT4=
EXTT5=
EXTT6=
EXTT7=
EXTT8=
EXTT9=
EXTT10=
EXTT11=
EXTT12=
EXTT13=
EXTT14=
EXTT15=
EXTT16=
EXTT17=
EXTT18=
EXTT19=
PLAYORDER=
